HIERARCHY
ROOT hip
{
  OFFSET 0 0 0
  CHANNELS 6 Xposition Yposition Zposition Zrotation Yrotation Xrotation
  JOINT abdomen
  {
    OFFSET 0 20.6881 -0.73152
    CHANNELS 3 Zrotation Xrotation Yrotation
    JOINT chest
    {
      OFFSET 0 11.7043 -0.48768
      CHANNELS 3 Zrotation Xrotation Yrotation
      JOINT neck
      {
        OFFSET 0 22.1894 -2.19456
        CHANNELS 3 Zrotation Xrotation Yrotation
        JOINT head
        {
          OFFSET -0.24384 7.07133 1.2192
          CHANNELS 3 Zrotation Xrotation Yrotation
          JOINT leftEye
          {
            OFFSET 4.14528 8.04674 8.04672
            CHANNELS 3 Zrotation Xrotation Yrotation
            End Site
            {
              OFFSET 1 0 0
            }
          }
          JOINT rightEye
          {
            OFFSET -3.6576 8.04674 8.04672
            CHANNELS 3 Zrotation Xrotation Yrotation
            End Site
            {
              OFFSET 1 0 0
            }
          }
        }
      }
      JOINT rCollar
      {
        OFFSET -2.68224 19.2634 -4.8768
        CHANNELS 3 Zrotation Xrotation Yrotation
        JOINT rShldr
        {
          OFFSET -8.77824 -1.95073 1.46304
          CHANNELS 3 Zrotation Xrotation Yrotation
          JOINT rForeArm
          {
            OFFSET -28.1742 -1.7115 0.48768
            CHANNELS 3 Zrotation Xrotation Yrotation
            JOINT rHand
            {
              OFFSET -22.5879 0.773209 7.07136
              CHANNELS 3 Zrotation Xrotation Yrotation
              JOINT rThumb1
              {
                OFFSET -1.2192 -0.487915 3.41376
                CHANNELS 3 Zrotation Xrotation Yrotation
                JOINT rThumb2
                {
                  OFFSET -3.37035 -0.52449 3.41376
                  CHANNELS 3 Zrotation Xrotation Yrotation
                  End Site
                  {
                    OFFSET -1.78271 -1.18214 1.43049
                  }
                }
              }
              JOINT rIndex1
              {
                OFFSET -7.75947 0.938293 5.60832
                CHANNELS 3 Zrotation Xrotation Yrotation
                JOINT rIndex2
                {
                  OFFSET -2.54057 -0.884171 1.56538
                  CHANNELS 3 Zrotation Xrotation Yrotation
                  End Site
                  {
                    OFFSET -1.62519 -0.234802 1.16502
                  }
                }
              }
              JOINT rMid1
              {
                OFFSET -8.24714 1.18213 3.41376
                CHANNELS 3 Zrotation Xrotation Yrotation
                JOINT rMid2
                {
                  OFFSET -3.10165 -0.590103 1.0647
                  CHANNELS 3 Zrotation Xrotation Yrotation
                  End Site
                  {
                    OFFSET -2.48547 -0.328903 0.83742
                  }
                }
              }
              JOINT rRing1
              {
                OFFSET -8.82822 0.546677 1.51678
                CHANNELS 3 Zrotation Xrotation Yrotation
                JOINT rRing2
                {
                  OFFSET -2.60934 -0.819778 -0.0198488
                  CHANNELS 3 Zrotation Xrotation Yrotation
                  End Site
                  {
                    OFFSET -2.33842 -0.294052 0.168128
                  }
                }
              }
              JOINT rPinky1
              {
                OFFSET -8.27202 -0.0477905 -0.4584
                CHANNELS 3 Zrotation Xrotation Yrotation
                JOINT rPinky2
                {
                  OFFSET -1.82734 -0.647385 -0.700984
                  CHANNELS 3 Zrotation Xrotation Yrotation
                  End Site
                  {
                    OFFSET -1.69225 -0.51767 -0.607171
                  }
                }
              }
            }
          }
        }
      }
      JOINT lCollar
      {
        OFFSET 2.68224 19.2634 -4.8768
        CHANNELS 3 Zrotation Xrotation Yrotation
        JOINT lShldr
        {
          OFFSET 8.77824 -1.95073 1.46304
          CHANNELS 3 Zrotation Xrotation Yrotation
          JOINT lForeArm
          {
            OFFSET 28.1742 -1.7115 0.48768
            CHANNELS 3 Zrotation Xrotation Yrotation
            JOINT lHand
            {
              OFFSET 22.5879 0.773209 7.07136
              CHANNELS 3 Zrotation Xrotation Yrotation
              JOINT lThumb1
              {
                OFFSET 1.2192 -0.487915 3.41376
                CHANNELS 3 Zrotation Xrotation Yrotation
                JOINT lThumb2
                {
                  OFFSET 3.37035 -0.52449 3.41376
                  CHANNELS 3 Zrotation Xrotation Yrotation
                  End Site
                  {
                    OFFSET 1.78271 -1.18214 1.43049
                  }
                }
              }
              JOINT lIndex1
              {
                OFFSET 7.75947 0.938293 5.60832
                CHANNELS 3 Zrotation Xrotation Yrotation
                JOINT lIndex2
                {
                  OFFSET 2.54057 -0.884171 1.56538
                  CHANNELS 3 Zrotation Xrotation Yrotation
                  End Site
                  {
                    OFFSET 1.62519 -0.234802 1.16502
                  }
                }
              }
              JOINT lMid1
              {
                OFFSET 8.24714 1.18213 3.41376
                CHANNELS 3 Zrotation Xrotation Yrotation
                JOINT lMid2
                {
                  OFFSET 3.10165 -0.590103 1.0647
                  CHANNELS 3 Zrotation Xrotation Yrotation
                  End Site
                  {
                    OFFSET 2.48547 -0.328903 0.83742
                  }
                }
              }
              JOINT lRing1
              {
                OFFSET 8.82822 0.546677 1.51678
                CHANNELS 3 Zrotation Xrotation Yrotation
                JOINT lRing2
                {
                  OFFSET 2.60934 -0.819778 -0.0198488
                  CHANNELS 3 Zrotation Xrotation Yrotation
                  End Site
                  {
                    OFFSET 2.33842 -0.294052 0.168128
                  }
                }
              }
              JOINT lPinky1
              {
                OFFSET 8.27202 -0.0477905 -0.4584
                CHANNELS 3 Zrotation Xrotation Yrotation
                JOINT lPinky2
                {
                  OFFSET 1.82734 -0.647385 -0.700984
                  CHANNELS 3 Zrotation Xrotation Yrotation
                  End Site
                  {
                    OFFSET 1.69225 -0.51767 -0.607171
                  }
                }
              }
            }
          }
        }
      }
    }
  }
  JOINT rButtock
  {
    OFFSET -8.77824 4.35084 1.2192
    CHANNELS 3 Zrotation Xrotation Yrotation
    JOINT rThigh
    {
      OFFSET 0 -1.70687 -2.19456
      CHANNELS 3 Zrotation Xrotation Yrotation
      JOINT rShin
      {
        OFFSET 0 -36.8199 0.73152
        CHANNELS 3 Zrotation Xrotation Yrotation
        JOINT rFoot
        {
          OFFSET 0.73152 -45.1104 -5.12064
          CHANNELS 3 Zrotation Xrotation Yrotation
          End Site
          {
            OFFSET -1.1221 -3.69964 12.103
          }
        }
      }
    }
  }
  JOINT lButtock
  {
    OFFSET 8.77824 4.35084 1.2192
    CHANNELS 3 Zrotation Xrotation Yrotation
    JOINT lThigh
    {
      OFFSET 0 -1.70687 -2.19456
      CHANNELS 3 Zrotation Xrotation Yrotation
      JOINT lShin
      {
        OFFSET 0 -36.8199 0.73152
        CHANNELS 3 Zrotation Xrotation Yrotation
        JOINT lFoot
        {
          OFFSET -0.73152 -45.1104 -5.12064
          CHANNELS 3 Zrotation Xrotation Yrotation
          End Site
          {
            OFFSET 1.1221 -3.69964 12.103
          }
        }
      }
    }
  }
}
MOTION
Frames:	4
Frame Time:	0.00833333
14.9614 81.251 -138.502 3.9868 -48.4067 12.9215 -5.15902 -10.6574 -1.35155 4.86746 -3.64898 -0.141351 6.6515 15.3255 13.7689 -15.1675 -19.5853 24.1832 -0.0 0.0 0.0 -0.0 0.0 0.0 -1.03562e-13 -4.74898e-13 -3.03147e-15 89.7984 46.09 -27.0033 -19.5464 -12.4517 37.5897 -0.153295 -11.0913 -1.57875 -9.66227e-10 -7.11153e-10 7.17845e-10 -1.67246e-09 -1.22762e-09 1.24012e-09 -9.66224e-10 -7.11151e-10 7.17835e-10 7.73091 5.47488 0.417314 -9.66227e-10 -7.11152e-10 7.17845e-10 2.90554 0.965183 0.102902 -9.66223e-10 -7.11153e-10 7.17846e-10 10.2786 0.731801 0.0259123 -9.6623e-10 -7.11151e-10 7.17854e-10 2.22167 -0.733487 -0.20892 -1.03579e-13 -4.74895e-13 -3.32964e-15 -79.3769 43.4486 17.4295 26.2517 -24.098 -57.8351 0.170377 -11.6826 1.66526 1.04617e-09 6.10095e-09 2.97529e-09 1.775e-09 1.05642e-08 5.15072e-09 1.04616e-09 6.10096e-09 2.97531e-09 -7.73091 5.47488 -0.417314 1.04617e-09 6.10094e-09 2.97529e-09 -2.90554 0.965183 -0.102902 1.04617e-09 6.10094e-09 2.97528e-09 -10.2786 0.731801 -0.0259123 1.04618e-09 6.10095e-09 2.97527e-09 -2.22167 -0.733487 0.20892 -2.03217e-16 0.0 -3.88251e-19 -4.88622 -49.1548 -0.461799 -0.624147 50.4152 0.952203 -2.78613 -2.24901 -15.3586 2.03217e-16 0.0 3.88251e-19 -9.08198 -25.953 -1.43221 0.135691 27.9517 -0.536569 1.96679 -18.3798 3.85558
14.3813 81.3291 -138.092 3.7109 -48.0422 12.7884 -4.92445 -10.5179 -1.39896 5.00125 -3.74663 -0.151911 6.49706 15.1871 13.6997 -15.0726 -19.5294 24.0666 -0.0 0.0 0.0 -0.0 0.0 0.0 -7.98919e-14 -4.27554e-13 3.67217e-13 89.7998 45.9529 -27.1532 -19.4605 -12.3482 37.385 -0.153972 -11.115 -1.5822 -5.06965e-10 -8.9065e-10 6.51086e-10 -8.78769e-10 -1.53756e-09 1.12704e-09 -5.06962e-10 -8.90649e-10 6.51078e-10 7.73091 5.47488 0.417314 -5.06965e-10 -8.9065e-10 6.51087e-10 2.90554 0.965183 0.102902 -5.0696e-10 -8.9065e-10 6.51088e-10 10.2786 0.731801 0.0259123 -5.06967e-10 -8.90648e-10 6.51095e-10 2.22167 -0.733487 -0.20892 -7.98919e-14 -4.27552e-13 3.66971e-13 -79.0779 43.7231 17.0709 26.4042 -24.5186 -58.5209 0.174885 -11.8273 1.68652 7.59558e-10 3.49782e-09 1.35098e-09 1.29401e-09 6.06003e-09 2.34222e-09 7.5955e-10 3.49784e-09 1.351e-09 -7.73091 5.47488 -0.417314 7.5956e-10 3.49782e-09 1.35098e-09 -2.90554 0.965183 -0.102902 7.59558e-10 3.49782e-09 1.35098e-09 -10.2786 0.731801 -0.0259123 7.59568e-10 3.49782e-09 1.35096e-09 -2.22167 -0.733487 0.20892 -2.03217e-16 0.0 -3.88251e-19 -4.4637 -49.2298 0.327184 -0.556034 48.3512 0.859958 -2.95081 -2.85117 -15.7411 2.03217e-16 0.0 3.88251e-19 -8.85907 -25.423 -1.7114 0.136766 27.6246 -0.523032 1.85097 -18.5476 3.54753
13.9805 81.3941 -137.748 3.8258 -47.3123 12.7741 -4.67392 -10.4146 -1.40321 5.11423 -3.82086 -0.152005 6.26087 15.0392 13.5894 -14.8962 -19.5262 23.8793 -0.0 0.0 0.0 -0.0 0.0 0.0 -2.30991e-14 -2.8283e-13 9.99154e-13 89.7721 45.7688 -27.2643 -19.3665 -12.2358 37.1622 -0.154526 -11.134 -1.58499 3.0493e-10 -1.1233e-09 4.32492e-10 5.25163e-10 -1.93939e-09 7.52662e-10 3.04934e-10 -1.1233e-09 4.32486e-10 7.73091 5.47488 0.417314 3.04929e-10 -1.1233e-09 4.32494e-10 2.90554 0.965183 0.102902 3.04936e-10 -1.1233e-09 4.32494e-10 10.2786 0.731801 0.0259123 3.04927e-10 -1.1233e-09 4.32501e-10 2.22167 -0.733487 -0.20892 -2.30888e-14 -2.8283e-13 9.98989e-13 -78.7682 44.0474 16.6693 26.5427 -24.9146 -59.1495 0.176594 -11.8844 1.6949 2.23815e-11 -1.60261e-09 -1.75179e-09 4.7495e-11 -2.7668e-09 -3.02424e-09 2.23745e-11 -1.6026e-09 -1.75177e-09 -7.73091 5.47488 -0.417314 2.23822e-11 -1.60262e-09 -1.75178e-09 -2.90554 0.965183 -0.102902 2.23798e-11 -1.60262e-09 -1.75179e-09 -10.2786 0.731801 -0.0259123 2.23915e-11 -1.60261e-09 -1.7518e-09 -2.22167 -0.733487 0.20892 -2.03217e-16 0.0 -3.88251e-19 -4.08342 -49.2093 1.14745 -0.492907 46.1495 0.768255 -3.1423 -3.5427 -16.1228 2.03217e-16 0.0 3.88251e-19 -8.64625 -24.8913 -2.01188 0.138524 27.2704 -0.504406 1.72348 -18.6824 3.22311
13.7828 81.3891 -137.778 3.9596 -46.5553 13.8605 -4.43421 -10.3546 -1.39666 5.20463 -3.86032 -0.150787 6.038 14.9159 13.4772 -14.7417 -19.552 23.6825 -0.0 0.0 0.0 -0.0 0.0 0.0 4.08611e-14 -1.12931e-13 1.59432e-12 89.7677 45.615 -27.3995 -19.2864 -12.1403 36.9738 -0.155474 -11.1675 -1.58988 1.00412e-09 -1.25665e-09 2.0848e-10 1.73422e-09 -2.16949e-09 3.67994e-10 1.00412e-09 -1.25665e-09 2.08476e-10 7.73091 5.47488 0.417314 1.00412e-09 -1.25665e-09 2.08483e-10 2.90554 0.965183 0.102902 1.00412e-09 -1.25665e-09 2.08483e-10 10.2786 0.731801 0.0259123 1.00411e-09 -1.25665e-09 2.08489e-10 2.22167 -0.733487 -0.20892 4.08693e-14 -1.12933e-13 1.59423e-12 -78.4533 44.3782 16.2718 26.6658 -25.2791 -59.7246 0.176878 -11.8974 1.69678 -7.64431e-10 -6.51542e-09 -4.70435e-09 -1.28595e-09 -1.12695e-08 -8.13157e-09 -7.64436e-10 -6.51541e-09 -4.70434e-09 -7.73091 5.47488 -0.417314 -7.64431e-10 -6.51542e-09 -4.70435e-09 -2.90554 0.965183 -0.102902 -7.64434e-10 -6.51542e-09 -4.70435e-09 -10.2786 0.731801 -0.0259123 -7.64421e-10 -6.51542e-09 -4.70435e-09 -2.22167 -0.733487 0.20892 -2.03217e-16 0.0 -3.88251e-19 -3.75963 -49.1057 2.00029 -0.434163 43.8536 0.677505 -3.33012 -4.21421 -16.4985 2.03217e-16 0.0 3.88251e-19 -8.45797 -24.3155 -2.32243 0.140099 26.8592 -0.482204 1.59832 -18.7853 2.91336
